<?xml version="1.0" encoding="UTF-8"?>
<svg width="24px" height="24px" viewBox="0 0 24 24" version="1.1" xmlns="http://www.w3.org/2000/svg" xmlns:xlink="http://www.w3.org/1999/xlink">
    <!-- Generator: Sketch 47.1 (45422) - http://www.bohemiancoding.com/sketch -->
    <title>list_icon1</title>
    <desc>Created with Sketch.</desc>
    <defs>
        <linearGradient x1="122.134665%" y1="-6.55353786%" x2="13.3940994%" y2="100%" id="linearGradient-1">
            <stop stop-color="#EE5318" offset="0%"></stop>
            <stop stop-color="#DB1500" offset="100%"></stop>
        </linearGradient>
    </defs>
    <g id="Symbols" stroke="none" stroke-width="1" fill="none" fill-rule="evenodd">
        <g id="元素/Cell-Elements/icon/京东">
            <g id="list_icon1">
                <rect id="Rectangle" fill-opacity="0.01" fill="#FFFFFF" x="0" y="0" width="24" height="24"></rect>
                <path d="M10.86848,15.6689881 L13.322665,15.6689881 C13.322665,15.6689881 15.4262521,14.9287632 16.1274478,14.9287632 L15.7768499,19 C15.7768499,19 14.7250564,19 13.6732628,17.8896627 L10.5178821,17.8896627 C9.46608858,19 8.41429501,19 8.41429501,19 L8.06369716,14.9287632 C8.76489287,14.9287632 10.86848,15.6689881 10.86848,15.6689881 Z M23.963937,8.42784514 C24.2048273,9.19386147 23.2824933,12.4005843 19.8752747,10.9559519 C19.0278994,10.282392 18.8394802,10.0277755 18.817674,9.93134632 C18.4895589,10.4687496 15.8595268,14.5675329 12.0386719,14.5675329 C12.0250431,14.5675329 12.0137992,14.5646436 12.0001704,14.5642825 C11.9865415,14.5646436 11.9749569,14.5675329 11.9613281,14.5675329 C8.14047315,14.5675329 5.51044113,10.4687496 5.18232598,9.93134632 C5.16051978,10.0277755 4.97244131,10.282392 4.12472533,10.9559519 C0.717506747,12.4005843 -0.204827323,9.19386147 0.0360630304,8.42784514 C0.376784889,7.34437083 1.43472626,7.23024487 1.73967232,6.26089652 C2.08039418,5.17742222 2.42111604,4.45510601 3.10255975,4.09394791 C3.78400347,3.73278981 4.80616905,4.45510601 5.1468909,5.53858032 C5.82833462,4.99684316 8.91425249,4.36481649 12.0001704,4.36481649 C15.0860882,4.36481649 18.1716654,4.99684316 18.8531091,5.53858032 C19.193831,4.45510601 20.2159965,3.73278981 20.8974402,4.09394791 C21.578884,4.45510601 21.9196058,5.17742222 22.2603277,6.26089652 C22.5652737,7.23024487 23.6232151,7.34437083 23.963937,8.42784514 Z M17.304869,8.34044488 C18.7096652,8.34044488 16.9641471,5.09002195 16.6234253,6.17349626 C16.408089,6.85861318 16.6234253,8.34044488 17.304869,8.34044488 Z M11.9613281,8.78900324 C13.2785588,8.78900324 14.3463811,8.38486732 14.3463811,7.88610798 C14.3463811,7.38734864 13.2785588,6.98321273 11.9613281,6.98321273 C10.6440974,6.98321273 9.57627506,7.38734864 9.57627506,7.88610798 C9.57627506,8.38486732 10.6440974,8.78900324 11.9613281,8.78900324 Z M6.86072185,8.34044488 C7.54216557,8.34044488 7.75750178,6.85861318 7.54216557,6.17349626 C7.20144371,5.09002195 5.45592563,8.34044488 6.86072185,8.34044488 Z" id="Combined-Shape" fill="url(#linearGradient-1)"></path>
                <g id="Group-5" transform="translate(0.000000, 4.000000)"></g>
            </g>
        </g>
    </g>
</svg>