<?xml version="1.0" encoding="UTF-8"?>
<svg width="24px" height="24px" viewBox="0 0 24 24" version="1.1" xmlns="http://www.w3.org/2000/svg" xmlns:xlink="http://www.w3.org/1999/xlink">
    <!-- Generator: Sketch 47.1 (45422) - http://www.bohemiancoding.com/sketch -->
    <title>list_icon3</title>
    <desc>Created with Sketch.</desc>
    <defs>
        <linearGradient x1="100%" y1="7.11749837%" x2="-22.7249317%" y2="100%" id="linearGradient-1">
            <stop stop-color="#FF7371" offset="0%"></stop>
            <stop stop-color="#F70223" offset="100%"></stop>
        </linearGradient>
    </defs>
    <g id="Symbols" stroke="none" stroke-width="1" fill="none" fill-rule="evenodd">
        <g id="Elements/icon/完善身份证信息-Copy-5">
            <g id="list_icon3">
                <rect id="Rectangle" fill-opacity="0.01" fill="#FFFFFF" x="0" y="0" width="24" height="24"></rect>
                <path d="M12,2.5 C18,3.49520438 21,3.99520438 21,4 C21,4 21,6.48725163 21,11.4617549 C21,14.4313539 19.5516234,17.2614082 17.1242554,19.0252671 L12,22 L6.87571433,19.0252671 C4.44840681,17.2614082 3,14.4313539 3,11.4617549 C3,6.4595938 3,3.97234217 3,4 C3,3.9970162 6,3.4970162 12,2.5 Z M12.9642827,8.48706638 L12.9642827,14.3653191 L11.8787837,14.3653191 L11.8787837,9.72895075 L10.9404711,9.72895075 L10.9404711,14.3653191 L10.1585439,14.3653191 L10.1585439,15.3036317 L16,15.3036317 L16,14.3653191 L13.9301927,14.3653191 L13.9301927,11.5595803 L15.5952377,11.5595803 L15.5952377,10.6672634 L13.9301927,10.6672634 L13.9301927,8.48706638 L15.7884197,8.48706638 L15.7884197,7.55795289 L10.4253191,7.55795289 L10.4253191,8.48706638 L12.9642827,8.48706638 Z M9.19263383,7.052 C8.80626981,7.8983212 8.20832548,8.62505353 7.408,9.25059529 L7.70237259,10.1981071 C8.80626981,9.37018415 9.57899786,8.45946895 10.0297559,7.44756317 L9.19263383,7.052 Z M9.48700642,9.4437773 C9.04544754,10.3452934 8.38310921,11.1364197 7.49079229,11.798758 L7.78516488,12.7278715 C8.07033833,12.5162912 8.33711349,12.3047109 8.59468951,12.0839315 L8.59468951,15.6348009 L9.53300214,15.6348009 L9.53300214,11.0996231 C9.85497216,10.6948608 10.1217473,10.2717002 10.3241285,9.83014133 L9.48700642,9.4437773 Z" id="Combined-Shape" fill="url(#linearGradient-1)"></path>
            </g>
        </g>
    </g>
</svg>