<?xml version="1.0" encoding="UTF-8"?>
<svg width="24px" height="24px" viewBox="0 0 24 24" version="1.1" xmlns="http://www.w3.org/2000/svg" xmlns:xlink="http://www.w3.org/1999/xlink">
    <!-- Generator: Sketch 47.1 (45422) - http://www.bohemiancoding.com/sketch -->
    <title>list_icon7</title>
    <desc>Created with Sketch.</desc>
    <defs>
        <linearGradient x1="100%" y1="7.11749837%" x2="3.10535735%" y2="89.8601476%" id="linearGradient-1">
            <stop stop-color="#46A2FF" offset="0%"></stop>
            <stop stop-color="#0A3FFF" offset="100%"></stop>
        </linearGradient>
    </defs>
    <g id="Symbols" stroke="none" stroke-width="1" fill="none" fill-rule="evenodd">
        <g id="Elements/icon/车险">
            <g id="list_icon7">
                <path d="M4.89747958,9.82523216 L19.0977502,9.82523216 L17.5850066,5.23820315 L6.43462228,5.23820315 L4.89747958,9.82523216 Z M17.5850066,14.8758439 C18.0079263,14.8758439 18.3657761,14.7294508 18.6585666,14.4366603 C18.9513572,14.1438697 19.0977502,13.777887 19.0977502,13.3387012 C19.0977502,12.8995154 18.9513572,12.5375991 18.6585666,12.2529417 C18.3657761,11.9682842 18.0079263,11.8259576 17.5850066,11.8259576 C17.1620869,11.8259576 16.8001707,11.9723507 16.4992471,12.2651412 C16.1983235,12.5579318 16.0478639,12.9157815 16.0478639,13.3387012 C16.0478639,13.7616209 16.194257,14.1235371 16.4870476,14.4244607 C16.7798381,14.7253843 17.1458208,14.8758439 17.5850066,14.8758439 Z M6.43462228,14.8758439 C6.85754196,14.8758439 7.21539171,14.7294508 7.50818226,14.4366603 C7.80097281,14.1438697 7.94736589,13.777887 7.94736589,13.3387012 C7.94736589,12.8995154 7.80097281,12.5375991 7.50818226,12.2529417 C7.21539171,11.9682842 6.85754196,11.8259576 6.43462228,11.8259576 C6.0117026,11.8259576 5.64978637,11.9723507 5.34886275,12.2651412 C5.04793913,12.5579318 4.89747958,12.9157815 4.89747958,13.3387012 C4.89747958,13.7616209 5.04387266,14.1235371 5.33666321,14.4244607 C5.62945376,14.7253843 5.99543646,14.8758439 6.43462228,14.8758439 Z M18.6880595,3.66571272 L20.5909091,9.125 L22.0227273,8.64772727 L22.5,9.82523216 L21.1472738,10.8255949 L21.1804088,19.8342873 L18.1305225,19.8342873 L18.0973875,17.9257302 L5.89784229,17.9257302 L5.93097726,19.8342873 L2.88109095,19.8342873 L2.84795598,10.8255949 L1.5,9.60227273 L2.45454545,8.64772727 L3.40909091,9.125 L5.34886275,3.66571272 L18.6880595,3.66571272 Z" id="directions_car---material" fill="url(#linearGradient-1)"></path>
                <rect id="Rectangle" fill-opacity="0.01" fill="#FFFFFF" x="0" y="0" width="24" height="24"></rect>
            </g>
        </g>
    </g>
</svg>