<?xml version="1.0" encoding="UTF-8"?>
<svg width="24px" height="24px" viewBox="0 0 24 24" version="1.1" xmlns="http://www.w3.org/2000/svg" xmlns:xlink="http://www.w3.org/1999/xlink">
    <!-- Generator: Sketch 47.1 (45422) - http://www.bohemiancoding.com/sketch -->
    <title>list_icon6</title>
    <desc>Created with Sketch.</desc>
    <defs>
        <linearGradient x1="112.549978%" y1="5.71203784%" x2="6.86479837%" y2="91.3413274%" id="linearGradient-1">
            <stop stop-color="#13D2E7" offset="0%"></stop>
            <stop stop-color="#00A547" offset="100%"></stop>
        </linearGradient>
    </defs>
    <g id="Symbols" stroke="none" stroke-width="1" fill="none" fill-rule="evenodd">
        <g id="Elements/icon/人寿">
            <g id="list_icon6">
                <g id="人寿保障" transform="translate(2.000000, 3.000000)" fill="url(#linearGradient-1)">
                    <path d="M12.296424,16.6736143 C11.771329,16.9363432 11.0058531,17.2451386 9.99999642,17.6000004 C8.75127989,17.1248916 7.97667063,16.8118901 7.67616863,16.6609958 C5.36094406,15.4980145 1.37072353,12.7773151 0.657060144,7.62337094 C0.162958848,4.05421279 1.93420189,2.33567058 3.03394222,1.62883604 C4.77445547,0.510341143 7.09428209,0.430671329 8.67520829,1.43510479 C9.41019943,1.90208866 9.75663941,2.06761383 9.99881585,2.06761383 C10.2490582,2.06761383 10.5881745,1.87200217 11.3314296,1.42956254 C13.0104832,0.430077517 15.3682149,0.518308124 17.0652809,1.64407722 C18.1267203,2.34823961 19.8337821,4.06138802 19.340621,7.62337094 C18.6253247,12.7898346 14.6202093,15.5111773 12.296424,16.6736143 Z M10.6181171,8.85288859 L10.6181171,5.02589507 C10.6181171,4.66074258 10.3221155,4.36479039 9.95686434,4.36479039 C9.5916625,4.36479039 9.29571031,4.66079194 9.29571031,5.02589507 L9.29571031,9.51404263 C9.29571031,9.87924447 9.5916625,10.1753447 9.95686434,10.1753447 L13.8225548,10.1753447 C14.1877072,10.1753447 14.4837581,9.87924447 14.4837581,9.51404263 C14.4837581,9.14898886 14.1877072,8.85288859 13.8225548,8.85288859 L10.6181171,8.85288859 Z" id="Combined-Shape"></path>
                </g>
                <rect id="Rectangle" fill-opacity="0.01" fill="#FFFFFF" x="0" y="0" width="24" height="24"></rect>
            </g>
        </g>
    </g>
</svg>