<?xml version="1.0" encoding="UTF-8"?>
<svg width="24px" height="24px" viewBox="0 0 24 24" version="1.1" xmlns="http://www.w3.org/2000/svg" xmlns:xlink="http://www.w3.org/1999/xlink">
    <!-- Generator: Sketch 47.1 (45422) - http://www.bohemiancoding.com/sketch -->
    <title>list_icon2</title>
    <desc>Created with Sketch.</desc>
    <defs>
        <linearGradient x1="100%" y1="13.8961887%" x2="31.4736231%" y2="71.7991608%" id="linearGradient-1">
            <stop stop-color="#3BB0FF" offset="0%"></stop>
            <stop stop-color="#186EFF" offset="100%"></stop>
        </linearGradient>
    </defs>
    <g id="Symbols" stroke="none" stroke-width="1" fill="none" fill-rule="evenodd">
        <g id="Elements/icon/支付宝">
            <g id="list_icon2">
                <g id="Group-3" transform="translate(2.000000, 4.000000)" fill="url(#linearGradient-1)">
                    <path d="M12.401297,9.84768303 C13.7663267,7.41013678 14.2538551,5.07008854 14.2538551,5.07008854 L13.9613419,5.07008854 L11.9138069,5.07008854 L9.67125666,5.07008854 L9.67125666,3.31506674 L15.0338584,3.31506674 L15.0338584,2.63254229 L9.67125666,2.63254229 L9.67125666,3.55271368e-14 L7.2337104,3.55271368e-14 L7.2337104,2.63254229 L2.35863706,2.63254229 L2.35863706,3.41256475 L7.2337104,3.41256475 L7.2337104,5.16760572 L3.13864036,5.16760572 L3.13864036,5.94760902 L11.5237956,5.94760902 C11.5237956,6.04510704 10.8412712,8.28765726 10.3537619,9.26267576 C4.11365887,6.82512951 2.35863706,8.28765726 1.87110865,8.4826533 C-2.22396139,11.4077088 1.57861459,15.1127868 2.26111988,15.0152888 C6.64870314,15.9903073 9.47624146,14.1377683 11.4262785,11.79772 C11.5237956,11.895218 19.6165144,15.697794 19.6165144,15.697794 L19.6165144,11.9926969 C18.4464423,11.895218 14.9363604,10.7252035 12.401297,9.84768303 M9.18374741,10.9201995 C6.16119389,14.8202736 2.45611592,13.6502399 1.87110865,13.3577458 C0.408580896,12.9677346 -0.0789283549,10.3351731 1.77361063,9.45765263 C4.79616415,8.4826533 7.52622362,9.55515065 9.47624146,10.5301883 C9.28124542,10.8227015 9.18374741,10.9201995 9.18374741,10.9201995" id="Fill-1"></path>
                </g>
                <rect id="Rectangle" fill-opacity="0.01" fill="#FFFFFF" x="0" y="0" width="24" height="24"></rect>
            </g>
        </g>
    </g>
</svg>