<?xml version="1.0" encoding="UTF-8"?>
<svg width="24px" height="24px" viewBox="0 0 24 24" version="1.1" xmlns="http://www.w3.org/2000/svg" xmlns:xlink="http://www.w3.org/1999/xlink">
    <!-- Generator: Sketch 47.1 (45422) - http://www.bohemiancoding.com/sketch -->
    <title>list_icon5</title>
    <desc>Created with Sketch.</desc>
    <defs>
        <linearGradient x1="126.248266%" y1="-30.5189918%" x2="0%" y2="130.46449%" id="linearGradient-1">
            <stop stop-color="#FC8B26" offset="0%"></stop>
            <stop stop-color="#E80000" offset="100%"></stop>
        </linearGradient>
    </defs>
    <g id="Symbols" stroke="none" stroke-width="1" fill="none" fill-rule="evenodd">
        <g id="Elements/icon/公积金">
            <g id="list_icon5">
                <path d="M2.25939215,10.6137822 L12.0272673,2.39071428 L21.8870892,10.6137822 L19.5,10.6137822 L19.5,21 L4.56916776,21 L4.56916776,10.6137822 L2.25939215,10.6137822 Z M14.531049,11.8300726 L13.0334331,11.8300726 L14.9434594,9.66191844 C15.1267644,9.45481365 15.1069483,9.13918595 14.90136,8.95582055 C14.6982132,8.77245514 14.3836237,8.78987783 14.2015781,8.99825114 L12.0560465,11.4316289 L9.98317378,9.00446428 C9.80359558,8.79487424 9.49026541,8.77118663 9.28341764,8.95206677 C9.07536188,9.13173018 9.05184477,9.4473061 9.23139727,9.65692204 L11.0873728,11.8300985 L9.56580289,11.8300985 C9.29210483,11.8300985 9.06916776,12.0546001 9.06916776,12.3303083 C9.06916776,12.6060166 9.29210483,12.8305441 9.56580289,12.8305441 L11.5511868,12.8305441 L11.5511868,13.8323099 L9.56580289,13.8323099 C9.29210483,13.8323099 9.06916776,14.0568633 9.06916776,14.331303 C9.06916776,14.6057687 9.29210483,14.830322 9.56580289,14.830322 L11.5511868,14.830322 L11.5511868,17.3302839 C11.5511868,17.6047237 11.7728645,17.829277 12.0478219,17.829277 C12.3227537,17.829277 12.5457165,17.6047237 12.5444571,17.3302839 L12.5444571,14.8302961 L14.531049,14.8302961 C14.804747,14.8302961 15.0264504,14.6057428 15.0264504,14.331303 C15.0264504,14.0568374 14.804747,13.832284 14.531049,13.832284 L12.5444571,13.832284 L12.5444571,12.8305441 L14.531049,12.8305441 C14.804747,12.8305441 15.0277098,12.6060166 15.0264504,12.3302824 C15.0264504,12.0546001 14.804747,11.8300726 14.531049,11.8300726 Z" id="Combined-Shape" fill="url(#linearGradient-1)"></path>
                <rect id="Rectangle" fill-opacity="0.01" fill="#FFFFFF" x="0" y="0" width="24" height="24"></rect>
            </g>
        </g>
    </g>
</svg>