<?xml version="1.0" encoding="UTF-8"?>
<svg width="24px" height="24px" viewBox="0 0 24 24" version="1.1" xmlns="http://www.w3.org/2000/svg" xmlns:xlink="http://www.w3.org/1999/xlink">
    <!-- Generator: Sketch 47.1 (45422) - http://www.bohemiancoding.com/sketch -->
    <title>list_icon4</title>
    <desc>Created with Sketch.</desc>
    <defs>
        <linearGradient x1="72.6994341%" y1="0%" x2="-21.5109535%" y2="100%" id="linearGradient-1">
            <stop stop-color="#FCC826" offset="0%"></stop>
            <stop stop-color="#E88500" offset="100%"></stop>
        </linearGradient>
    </defs>
    <g id="Symbols" stroke="none" stroke-width="1" fill="none" fill-rule="evenodd">
        <g id="Elements/icon/社保">
            <g id="list_icon4">
                <g id="Group" transform="translate(3.000000, 2.000000)" fill="url(#linearGradient-1)">
                    <path d="M9,0.5 C15,1.49520438 18,1.99520438 18,2 C18,2 18,4.48725163 18,9.46175489 C18,12.4313539 16.5516234,15.2614082 14.1242554,17.0252671 L9,20 L3.87571433,17.0252671 C1.44840681,15.2614082 0,12.4313539 0,9.46175489 C0,4.4595938 0,1.97234217 0,2 C0,1.9970162 3,1.4970162 9,0.5 Z M6.40459371,5.40026846 C5.94254414,6.79719195 5.21933613,8.01269681 4.25505877,9.0377121 L4.59657367,10.0536565 C4.89791034,9.76338665 5.18920246,9.45497497 5.46040547,9.14656329 L5.46040547,13.8997315 L6.52512838,13.8997315 L6.52512838,7.67707234 C6.88673239,7.08746177 7.17802451,6.47063841 7.39900474,5.82660225 L6.40459371,5.40026846 Z M7.76060875,5.85381505 L7.76060875,8.91978999 L9.67911891,8.91978999 L9.67911891,9.6363936 L7.00726706,9.6363936 L7.00726706,10.5616286 L8.76506433,10.5616286 C8.23270287,11.3961544 7.55971763,12.0674033 6.73606405,12.5935174 L7.32869285,13.446185 C8.23270287,12.7567941 8.99608911,11.7952754 9.59876246,10.5616286 L9.67911891,10.5616286 L9.67911891,13.8906606 L10.7237527,13.8906606 L10.7237527,10.5616286 L10.7940646,10.5616286 C11.3766488,11.704566 12.119946,12.6660848 13.0139114,13.437114 L13.6969412,12.6116592 C12.8130203,12.0220487 12.1299905,11.3417288 11.6378073,10.5616286 L13.4960501,10.5616286 L13.4960501,9.6363936 L10.7237527,9.6363936 L10.7237527,8.91978999 L12.662352,8.91978999 L12.662352,5.85381505 L7.76060875,5.85381505 Z M11.6378073,8.01269681 L8.78515344,8.01269681 L8.78515344,6.76090823 L11.6378073,6.76090823 L11.6378073,8.01269681 Z" id="Combined-Shape"></path>
                </g>
                <rect id="Rectangle" fill-opacity="0.01" fill="#FFFFFF" x="0" y="0" width="24" height="24"></rect>
            </g>
        </g>
    </g>
</svg>